<svg xmlns="http://www.w3.org/2000/svg" viewBox="0 0 784.54 683.22"><defs><style>.cls-1,.cls-3{fill:#f8f3f9;stroke:#561e31;stroke-linecap:round;}.cls-1{stroke-linejoin:round;stroke-width:20px;}.cls-2{fill:#efc0b6;}.cls-3{stroke-miterlimit:10;stroke-width:11.9px;}.cls-4{fill:#561e31;}</style></defs><title>mano</title><g id="Capa_2" data-name="Capa 2"><g id="Capa_10" data-name="Capa 10"><path class="cls-1" d="M600.41,249.51c17.72,1.84,16.57-33.73,80.45-33.73,50.6,0,91.65,42.69,93.61,93.26a97.12,97.12,0,0,1-151.73,84.14V621.46A51.76,51.76,0,0,1,571,673.22H178.36a51.76,51.76,0,0,1-51.77-51.76V427.15c0-62.5-17-73-34.77-73C38.25,354.18,10,311.81,10,258.23A97.2,97.2,0,0,1,126.62,163a97.11,97.11,0,0,1-1.53-18.56c.67-53,44.42-96,97.43-95.9a97,97,0,0,1,73.1,33.54A97.16,97.16,0,0,1,477.29,65.55a97.11,97.11,0,0,1,152,80.18c0,29.11-28.13,64.4-35.92,81S593.06,248.75,600.41,249.51Z"/><path class="cls-2" d="M376.43,255.77a122.33,122.33,0,0,0-173,173l173,173,173-173a122.33,122.33,0,0,0-173-173Z"/><circle class="cls-2" cx="107.16" cy="260.08" r="54.64"/><circle class="cls-2" cx="222.24" cy="147.58" r="54.64"/><circle class="cls-2" cx="389.5" cy="109.01" r="54.64"/><circle class="cls-2" cx="532.1" cy="147.58" r="54.64"/><circle class="cls-2" cx="677.38" cy="314.72" r="54.64"/><ellipse class="cls-3" cx="376.43" cy="384.1" rx="103.13" ry="90.6"/><path class="cls-3" d="M451.81,326.24s16.54-11.73,36.84-11.73,36.11,17.34,36.11,39.79c0,29.59-16.19,41.83-45.78,41.83-11.92,0-20.29-8-23.85-8a13.49,13.49,0,0,0-6.13,1.66"/><path class="cls-3" d="M301,326.24s-16.54-11.73-36.84-11.73-36.11,17.34-36.11,39.79c0,29.59,16.2,41.83,45.79,41.83,11.91,0,20.4-8,23.84-8a13.49,13.49,0,0,1,6.13,1.66"/><path class="cls-4" d="M433.6,407.91a9.62,9.62,0,1,0,9.62,9.62A9.63,9.63,0,0,0,433.6,407.91Z"/><path class="cls-4" d="M384.92,442.43c-1,0-1.75-1.86-1.94-4.95,3.1-2.22,5.57-4.61,5.57-6.61a2.94,2.94,0,0,0-.95-2.14c-2.25-2.15-9-2.71-11.17-2.62-2.15-.09-8.93.47-11.18,2.62a2.93,2.93,0,0,0-.94,2.14c0,2,2.46,4.39,5.56,6.61-.19,3.09-.9,4.95-1.94,4.95a5.63,5.63,0,0,0-4.27,1.67,5.84,5.84,0,0,0-1.49,4.13c0,2.37,1.65,5.14,6.29,5.14a10,10,0,0,0,8-4.05,10,10,0,0,0,8,4.05c4.63,0,6.28-2.77,6.28-5.14a5.84,5.84,0,0,0-1.49-4.13A5.62,5.62,0,0,0,384.92,442.43Z"/><path class="cls-4" d="M319.25,407.91a9.62,9.62,0,1,0,9.62,9.62A9.63,9.63,0,0,0,319.25,407.91Z"/></g></g></svg>