<svg xmlns="http://www.w3.org/2000/svg" viewBox="0 0 791.48 401.19"><defs><style>.cls-1{fill:#f8f3f9;stroke:#561e31;stroke-linecap:round;stroke-miterlimit:10;stroke-width:20px;}.cls-2{fill:#561e31;}</style></defs><title>pof tiendita</title><g id="Capa_2" data-name="Capa 2"><g id="Capa_11" data-name="Capa 11"><ellipse class="cls-1" cx="404.89" cy="162.21" rx="173.27" ry="152.21"/><path class="cls-1" d="M531.54,65s27.78-19.71,61.89-19.71,60.68,29.14,60.68,66.85c0,49.71-27.22,70.29-76.93,70.29-20,0-34.08-13.5-40.06-13.5a22.71,22.71,0,0,0-10.3,2.78"/><path class="cls-1" d="M278.24,65s-27.79-19.71-61.89-19.71-60.68,29.14-60.68,66.85c0,49.71,27.21,70.29,76.93,70.29,20,0,34.28-13.5,40-13.5a22.66,22.66,0,0,1,10.3,2.78"/><path class="cls-2" d="M501,202.21a16.16,16.16,0,1,0,16.16,16.16A16.18,16.18,0,0,0,501,202.21Z"/><path class="cls-2" d="M419.16,260.21c-1.75,0-2.94-3.12-3.27-8.32,5.23-3.73,9.36-7.75,9.36-11.1a4.91,4.91,0,0,0-1.59-3.59c-3.77-3.62-15.17-4.56-18.77-4.42-3.6-.14-15,.8-18.77,4.42a4.91,4.91,0,0,0-1.59,3.59c0,3.35,4.13,7.37,9.35,11.1-.32,5.2-1.51,8.32-3.26,8.32a9.44,9.44,0,0,0-7.18,2.8,9.8,9.8,0,0,0-2.5,6.94c0,4,2.77,8.63,10.56,8.63a16.79,16.79,0,0,0,13.39-6.81,16.79,16.79,0,0,0,13.39,6.81c7.79,0,10.56-4.65,10.56-8.63a9.84,9.84,0,0,0-2.5-6.94A9.46,9.46,0,0,0,419.16,260.21Z"/><path class="cls-2" d="M308.83,202.21A16.16,16.16,0,1,0,325,218.37,16.18,16.18,0,0,0,308.83,202.21Z"/><path class="cls-2" d="M28.88,383Q0,383,0,353.48V185.78q0-29.21,28.55-29.21,25.94,0,28.56,24.28Q63.66,169.38,77,162.64a64.17,64.17,0,0,1,29.38-6.73q20.67,0,36.59,10.17t24.94,29q9,18.87,9,45.13,0,25.92-8.86,45t-24.78,29.21q-15.93,10.17-36.92,10.17a64,64,0,0,1-28.07-6.23q-13-6.24-19.85-16.74v51.85q0,14.44-7.71,22T28.88,383ZM88,281.61a27.4,27.4,0,0,0,21.66-9.85q8.52-9.84,8.53-31.5,0-22-8.53-31.67A27.6,27.6,0,0,0,88,198.9q-13.47,0-22,9.69t-8.54,31.67q0,21.66,8.54,31.5T88,281.61Z"/><path class="cls-2" d="M711.84,324.71q-14.12,0-21.66-7.55t-7.55-22V203.28H674.1q-22,0-22-21.66,0-21.33,22-21.33h8.53q1.64-33.15,19.69-49.89t52.84-20.35l9.52-1q10.5-1.3,16.74,2.46a19.45,19.45,0,0,1,8.53,10,23.87,23.87,0,0,1,1.15,12.64,22.71,22.71,0,0,1-5.09,11,15.19,15.19,0,0,1-10.5,5.25l-4.59.33q-16.74,1-23.31,7.06t-6.56,17.55v4.93h18.71q22,0,22,21.33,0,21.66-22,21.66H741.05v91.89Q741.05,324.72,711.84,324.71Z"/><path class="cls-2" d="M157.71,401.19q-17.64,0-17.63-17.46V364.37h-4.73q-4.54,0-4.54-4.27t4.54-4.27h4.73v-8.27q0-5.73,5.72-5.73t5.64,5.73v8.27h9.63q4.55,0,4.55,4.27t-4.55,4.27h-9.63V383.1c0,2.91.63,5.09,1.91,6.54s3.33,2.18,6.18,2.18a12.21,12.21,0,0,0,2.72-.27,17.16,17.16,0,0,1,2.1-.36,2.1,2.1,0,0,1,1.81.68c.49.51.73,1.56.73,3.13a8.34,8.34,0,0,1-.59,3.23,3.45,3.45,0,0,1-2.14,2,26,26,0,0,1-3.09.68A21,21,0,0,1,157.71,401.19Z"/><path class="cls-2" d="M205,346.74a7.19,7.19,0,0,1-5-1.59,6.43,6.43,0,0,1,0-8.86,7.33,7.33,0,0,1,5-1.55q6.72,0,6.72,6T205,346.74Zm0,54.17a5.29,5.29,0,0,1-4.18-1.63,6.62,6.62,0,0,1-1.46-4.55V361.37q0-6.18,5.64-6.18c3.82,0,5.72,2.06,5.72,6.18v33.36a6.61,6.61,0,0,1-1.45,4.55A5.41,5.41,0,0,1,205,400.91Z"/><path class="cls-2" d="M270.29,401.19a27.92,27.92,0,0,1-13-2.82,20.05,20.05,0,0,1-8.41-8A26.91,26.91,0,0,1,248.8,366a21,21,0,0,1,7.91-8.14,22.38,22.38,0,0,1,11.49-2.95q9.46,0,15,6t5.5,16.36q0,3.36-4.37,3.36H256.84q1.28,11.91,13.64,11.91a27.66,27.66,0,0,0,5.31-.59,18.88,18.88,0,0,0,5.59-2,5.2,5.2,0,0,1,4-.86,3.6,3.6,0,0,1,2.32,2,4.42,4.42,0,0,1,.18,3.22,5.35,5.35,0,0,1-2.59,3,23.8,23.8,0,0,1-7.31,3A34.16,34.16,0,0,1,270.29,401.19Zm-1.63-38.54a10.93,10.93,0,0,0-8.09,3.09,13.7,13.7,0,0,0-3.73,8.36H279.2c-.24-3.7-1.26-6.53-3-8.5A9.62,9.62,0,0,0,268.66,362.65Z"/><path class="cls-2" d="M329.18,401c-3.76,0-5.64-1.93-5.64-5.81V360.83q0-5.73,5.55-5.73t5.54,5.73v1.91a15.08,15.08,0,0,1,6.14-5.82,18.63,18.63,0,0,1,8.68-2q15.72,0,15.72,18.27v22c0,3.88-1.88,5.81-5.63,5.81s-5.73-1.93-5.73-5.81V373.74c0-3.46-.65-6-1.95-7.55s-3.32-2.36-6.05-2.36a10.4,10.4,0,0,0-7.95,3.13,11.65,11.65,0,0,0-3,8.32v19.91C334.9,399.07,333,401,329.18,401Z"/><path class="cls-2" d="M419.69,401.19a18,18,0,0,1-17.08-10.87A28.64,28.64,0,0,1,400.15,378a28.32,28.32,0,0,1,2.46-12.32,18.76,18.76,0,0,1,6.86-7.95,18.56,18.56,0,0,1,10.22-2.82,17.57,17.57,0,0,1,8.55,2.09,14,14,0,0,1,5.72,5.54V341.19q0-5.71,5.64-5.72t5.73,5.72v54c0,3.88-1.88,5.81-5.64,5.81s-5.63-1.93-5.63-5.81v-1.91a14.08,14.08,0,0,1-5.73,5.77A17.46,17.46,0,0,1,419.69,401.19Zm3.19-8.64a10.17,10.17,0,0,0,8.18-3.68q3.09-3.69,3.09-10.86t-3.09-10.87a11.13,11.13,0,0,0-16.37,0q-3.09,3.6-3.09,10.87t3.09,10.86A10.17,10.17,0,0,0,422.88,392.55Z"/><path class="cls-2" d="M488.67,346.74a7.17,7.17,0,0,1-5-1.59,6.43,6.43,0,0,1,0-8.86,7.31,7.31,0,0,1,5-1.55q6.72,0,6.72,6T488.67,346.74Zm0,54.17a5.29,5.29,0,0,1-4.18-1.63,6.62,6.62,0,0,1-1.46-4.55V361.37q0-6.18,5.64-6.18c3.82,0,5.72,2.06,5.72,6.18v33.36a6.61,6.61,0,0,1-1.45,4.55A5.42,5.42,0,0,1,488.67,400.91Z"/><path class="cls-2" d="M552.46,401.19q-17.64,0-17.63-17.46V364.37H530.1q-4.54,0-4.55-4.27t4.55-4.27h4.73v-8.27c0-3.82,1.9-5.73,5.72-5.73s5.64,1.91,5.64,5.73v8.27h9.63q4.54,0,4.55,4.27t-4.55,4.27h-9.63V383.1c0,2.91.63,5.09,1.91,6.54s3.33,2.18,6.18,2.18a12.27,12.27,0,0,0,2.72-.27,17.35,17.35,0,0,1,2.09-.36,2.11,2.11,0,0,1,1.82.68c.49.51.73,1.56.73,3.13a8.34,8.34,0,0,1-.59,3.23,3.48,3.48,0,0,1-2.14,2,26.89,26.89,0,0,1-3.09.68A21,21,0,0,1,552.46,401.19Z"/><path class="cls-2" d="M607.52,401.19a19.12,19.12,0,0,1-8.58-1.87,14.79,14.79,0,0,1-5.91-5,12.56,12.56,0,0,1-2.14-7.18,11.27,11.27,0,0,1,2.54-7.77q2.55-2.86,8.28-4.14a73.55,73.55,0,0,1,15.36-1.27h3.18V372q0-4.54-2-6.55c-1.33-1.33-3.58-2-6.73-2a28.23,28.23,0,0,0-5.68.64,29.93,29.93,0,0,0-6.4,2.18,4,4,0,0,1-3.64.23,3.91,3.91,0,0,1-2-2.46,5.06,5.06,0,0,1,.19-3.4,4.55,4.55,0,0,1,2.77-2.55,40.68,40.68,0,0,1,8-2.45,38,38,0,0,1,7-.73q9.72,0,14.45,4.5t4.73,13.95v21.82c0,3.88-1.76,5.81-5.28,5.81s-5.36-1.93-5.36-5.81v-2a12.42,12.42,0,0,1-4.91,5.86A14.62,14.62,0,0,1,607.52,401.19Zm2.37-7.82a9.79,9.79,0,0,0,7.4-3.09,10.87,10.87,0,0,0,3-7.82v-2h-3.09q-8.55,0-11.86,1.32a4.77,4.77,0,0,0-3.32,4.77,6.36,6.36,0,0,0,2.09,4.91A8.31,8.31,0,0,0,609.89,393.37Z"/></g></g></svg>